<svg width="162" height="178" viewBox="0 0 162 178" fill="none" xmlns="http://www.w3.org/2000/svg">
<path d="M2.90654 0H0V2.90653H2.90654V0Z" fill="#D9DCE2" fill-opacity="0.4"/>
<path d="M2.90654 17.5143H0V20.4209H2.90654V17.5143Z" fill="#D9DCE2" fill-opacity="0.4"/>
<path d="M2.90654 35.0037H0V37.9102H2.90654V35.0037Z" fill="#D9DCE2" fill-opacity="0.4"/>
<path d="M2.90654 52.518H0V55.4245H2.90654V52.518Z" fill="#D9DCE2" fill-opacity="0.4"/>
<path d="M2.90654 70.0324H0V72.9389H2.90654V70.0324Z" fill="#D9DCE2" fill-opacity="0.4"/>
<path d="M2.90654 87.5468H0V90.4533H2.90654V87.5468Z" fill="#D9DCE2" fill-opacity="0.4"/>
<path d="M2.90654 105.061H0V107.968H2.90654V105.061Z" fill="#D9DCE2" fill-opacity="0.4"/>
<path d="M2.90654 122.55H0V125.457H2.90654V122.55Z" fill="#D9DCE2" fill-opacity="0.4"/>
<path d="M2.90654 140.065H0V142.971H2.90654V140.065Z" fill="#D9DCE2" fill-opacity="0.4"/>
<path d="M2.90654 157.579H0V160.486H2.90654V157.579Z" fill="#D9DCE2" fill-opacity="0.4"/>
<path d="M2.90654 175.094H0V178H2.90654V175.094Z" fill="#D9DCE2" fill-opacity="0.4"/>
<path d="M18.7672 0H15.8607V2.90653H18.7672V0Z" fill="#D9DCE2" fill-opacity="0.4"/>
<path d="M18.7672 17.5143H15.8607V20.4209H18.7672V17.5143Z" fill="#D9DCE2" fill-opacity="0.4"/>
<path d="M18.7672 35.0037H15.8607V37.9102H18.7672V35.0037Z" fill="#D9DCE2" fill-opacity="0.4"/>
<path d="M18.7672 52.518H15.8607V55.4245H18.7672V52.518Z" fill="#D9DCE2" fill-opacity="0.4"/>
<path d="M18.7672 70.0324H15.8607V72.9389H18.7672V70.0324Z" fill="#D9DCE2" fill-opacity="0.4"/>
<path d="M18.7672 87.5468H15.8607V90.4533H18.7672V87.5468Z" fill="#D9DCE2" fill-opacity="0.4"/>
<path d="M18.7672 105.061H15.8607V107.968H18.7672V105.061Z" fill="#D9DCE2" fill-opacity="0.4"/>
<path d="M18.7672 122.55H15.8607V125.457H18.7672V122.55Z" fill="#D9DCE2" fill-opacity="0.4"/>
<path d="M18.7672 140.065H15.8607V142.971H18.7672V140.065Z" fill="#D9DCE2" fill-opacity="0.4"/>
<path d="M18.7672 157.579H15.8607V160.486H18.7672V157.579Z" fill="#D9DCE2" fill-opacity="0.4"/>
<path d="M18.7672 175.094H15.8607V178H18.7672V175.094Z" fill="#D9DCE2" fill-opacity="0.4"/>
<path d="M34.6028 0H31.6963V2.90653H34.6028V0Z" fill="#D9DCE2" fill-opacity="0.4"/>
<path d="M34.6028 17.5143H31.6963V20.4209H34.6028V17.5143Z" fill="#D9DCE2" fill-opacity="0.4"/>
<path d="M34.6028 35.0037H31.6963V37.9102H34.6028V35.0037Z" fill="#D9DCE2" fill-opacity="0.4"/>
<path d="M34.6028 52.518H31.6963V55.4245H34.6028V52.518Z" fill="#D9DCE2" fill-opacity="0.4"/>
<path d="M34.6028 70.0324H31.6963V72.9389H34.6028V70.0324Z" fill="#D9DCE2" fill-opacity="0.4"/>
<path d="M34.6028 87.5468H31.6963V90.4533H34.6028V87.5468Z" fill="#D9DCE2" fill-opacity="0.4"/>
<path d="M34.6028 105.061H31.6963V107.968H34.6028V105.061Z" fill="#D9DCE2" fill-opacity="0.4"/>
<path d="M34.6028 122.55H31.6963V125.457H34.6028V122.55Z" fill="#D9DCE2" fill-opacity="0.4"/>
<path d="M34.6028 140.065H31.6963V142.971H34.6028V140.065Z" fill="#D9DCE2" fill-opacity="0.4"/>
<path d="M34.6028 157.579H31.6963V160.486H34.6028V157.579Z" fill="#D9DCE2" fill-opacity="0.4"/>
<path d="M34.6028 175.094H31.6963V178H34.6028V175.094Z" fill="#D9DCE2" fill-opacity="0.4"/>
<path d="M50.4634 0H47.5568V2.90653H50.4634V0Z" fill="#D9DCE2" fill-opacity="0.4"/>
<path d="M50.4634 17.5143H47.5568V20.4209H50.4634V17.5143Z" fill="#D9DCE2" fill-opacity="0.4"/>
<path d="M50.4634 35.0037H47.5568V37.9102H50.4634V35.0037Z" fill="#D9DCE2" fill-opacity="0.4"/>
<path d="M50.4634 52.518H47.5568V55.4245H50.4634V52.518Z" fill="#D9DCE2" fill-opacity="0.4"/>
<path d="M50.4634 70.0324H47.5568V72.9389H50.4634V70.0324Z" fill="#D9DCE2" fill-opacity="0.4"/>
<path d="M50.4634 87.5468H47.5568V90.4533H50.4634V87.5468Z" fill="#D9DCE2" fill-opacity="0.4"/>
<path d="M50.4634 105.061H47.5568V107.968H50.4634V105.061Z" fill="#D9DCE2" fill-opacity="0.4"/>
<path d="M50.4634 122.55H47.5568V125.457H50.4634V122.55Z" fill="#D9DCE2" fill-opacity="0.4"/>
<path d="M50.4634 140.065H47.5568V142.971H50.4634V140.065Z" fill="#D9DCE2" fill-opacity="0.4"/>
<path d="M50.4634 157.579H47.5568V160.486H50.4634V157.579Z" fill="#D9DCE2" fill-opacity="0.4"/>
<path d="M50.4634 175.094H47.5568V178H50.4634V175.094Z" fill="#D9DCE2" fill-opacity="0.4"/>
<path d="M66.3241 0H63.4175V2.90653H66.3241V0Z" fill="#D9DCE2" fill-opacity="0.4"/>
<path d="M66.3241 17.5143H63.4175V20.4209H66.3241V17.5143Z" fill="#D9DCE2" fill-opacity="0.4"/>
<path d="M66.3241 35.0037H63.4175V37.9102H66.3241V35.0037Z" fill="#D9DCE2" fill-opacity="0.4"/>
<path d="M66.3241 52.518H63.4175V55.4245H66.3241V52.518Z" fill="#D9DCE2" fill-opacity="0.4"/>
<path d="M66.3241 70.0324H63.4175V72.9389H66.3241V70.0324Z" fill="#D9DCE2" fill-opacity="0.4"/>
<path d="M66.3241 87.5468H63.4175V90.4533H66.3241V87.5468Z" fill="#D9DCE2" fill-opacity="0.4"/>
<path d="M66.3241 105.061H63.4175V107.968H66.3241V105.061Z" fill="#D9DCE2" fill-opacity="0.4"/>
<path d="M66.3241 122.55H63.4175V125.457H66.3241V122.55Z" fill="#D9DCE2" fill-opacity="0.4"/>
<path d="M66.3241 140.065H63.4175V142.971H66.3241V140.065Z" fill="#D9DCE2" fill-opacity="0.4"/>
<path d="M66.3241 157.579H63.4175V160.486H66.3241V157.579Z" fill="#D9DCE2" fill-opacity="0.4"/>
<path d="M66.3241 175.094H63.4175V178H66.3241V175.094Z" fill="#D9DCE2" fill-opacity="0.4"/>
<path d="M82.1596 0H79.2531V2.90653H82.1596V0Z" fill="#D9DCE2" fill-opacity="0.4"/>
<path d="M82.1596 17.5143H79.2531V20.4209H82.1596V17.5143Z" fill="#D9DCE2" fill-opacity="0.4"/>
<path d="M82.1596 35.0037H79.2531V37.9102H82.1596V35.0037Z" fill="#D9DCE2" fill-opacity="0.4"/>
<path d="M82.1596 52.518H79.2531V55.4245H82.1596V52.518Z" fill="#D9DCE2" fill-opacity="0.4"/>
<path d="M82.1596 70.0324H79.2531V72.9389H82.1596V70.0324Z" fill="#D9DCE2" fill-opacity="0.4"/>
<path d="M82.1596 87.5468H79.2531V90.4533H82.1596V87.5468Z" fill="#D9DCE2" fill-opacity="0.4"/>
<path d="M82.1596 105.061H79.2531V107.968H82.1596V105.061Z" fill="#D9DCE2" fill-opacity="0.4"/>
<path d="M82.1596 122.55H79.2531V125.457H82.1596V122.55Z" fill="#D9DCE2" fill-opacity="0.4"/>
<path d="M82.1596 140.065H79.2531V142.971H82.1596V140.065Z" fill="#D9DCE2" fill-opacity="0.4"/>
<path d="M82.1596 157.579H79.2531V160.486H82.1596V157.579Z" fill="#D9DCE2" fill-opacity="0.4"/>
<path d="M82.1596 175.094H79.2531V178H82.1596V175.094Z" fill="#D9DCE2" fill-opacity="0.4"/>
<path d="M98.0203 0H95.1138V2.90653H98.0203V0Z" fill="#D9DCE2" fill-opacity="0.4"/>
<path d="M98.0203 17.5143H95.1138V20.4209H98.0203V17.5143Z" fill="#D9DCE2" fill-opacity="0.4"/>
<path d="M98.0203 35.0037H95.1138V37.9102H98.0203V35.0037Z" fill="#D9DCE2" fill-opacity="0.4"/>
<path d="M98.0203 52.518H95.1138V55.4245H98.0203V52.518Z" fill="#D9DCE2" fill-opacity="0.4"/>
<path d="M98.0203 70.0324H95.1138V72.9389H98.0203V70.0324Z" fill="#D9DCE2" fill-opacity="0.4"/>
<path d="M98.0203 87.5468H95.1138V90.4533H98.0203V87.5468Z" fill="#D9DCE2" fill-opacity="0.4"/>
<path d="M98.0203 105.061H95.1138V107.968H98.0203V105.061Z" fill="#D9DCE2" fill-opacity="0.4"/>
<path d="M98.0203 122.55H95.1138V125.457H98.0203V122.55Z" fill="#D9DCE2" fill-opacity="0.4"/>
<path d="M98.0203 140.065H95.1138V142.971H98.0203V140.065Z" fill="#D9DCE2" fill-opacity="0.4"/>
<path d="M98.0203 157.579H95.1138V160.486H98.0203V157.579Z" fill="#D9DCE2" fill-opacity="0.4"/>
<path d="M98.0203 175.094H95.1138V178H98.0203V175.094Z" fill="#D9DCE2" fill-opacity="0.4"/>
<path d="M113.881 0H110.974V2.90653H113.881V0Z" fill="#D9DCE2" fill-opacity="0.4"/>
<path d="M113.881 17.5143H110.974V20.4209H113.881V17.5143Z" fill="#D9DCE2" fill-opacity="0.4"/>
<path d="M113.881 35.0037H110.974V37.9102H113.881V35.0037Z" fill="#D9DCE2" fill-opacity="0.4"/>
<path d="M113.881 52.518H110.974V55.4245H113.881V52.518Z" fill="#D9DCE2" fill-opacity="0.4"/>
<path d="M113.881 70.0324H110.974V72.9389H113.881V70.0324Z" fill="#D9DCE2" fill-opacity="0.4"/>
<path d="M113.881 87.5468H110.974V90.4533H113.881V87.5468Z" fill="#D9DCE2" fill-opacity="0.4"/>
<path d="M113.881 105.061H110.974V107.968H113.881V105.061Z" fill="#D9DCE2" fill-opacity="0.4"/>
<path d="M113.881 122.55H110.974V125.457H113.881V122.55Z" fill="#D9DCE2" fill-opacity="0.4"/>
<path d="M113.881 140.065H110.974V142.971H113.881V140.065Z" fill="#D9DCE2" fill-opacity="0.4"/>
<path d="M113.881 157.579H110.974V160.486H113.881V157.579Z" fill="#D9DCE2" fill-opacity="0.4"/>
<path d="M113.881 175.094H110.974V178H113.881V175.094Z" fill="#D9DCE2" fill-opacity="0.4"/>
<path d="M129.742 0H126.835V2.90653H129.742V0Z" fill="#D9DCE2" fill-opacity="0.4"/>
<path d="M129.742 17.5143H126.835V20.4209H129.742V17.5143Z" fill="#D9DCE2" fill-opacity="0.4"/>
<path d="M129.742 35.0037H126.835V37.9102H129.742V35.0037Z" fill="#D9DCE2" fill-opacity="0.4"/>
<path d="M129.742 52.518H126.835V55.4245H129.742V52.518Z" fill="#D9DCE2" fill-opacity="0.4"/>
<path d="M129.742 70.0324H126.835V72.9389H129.742V70.0324Z" fill="#D9DCE2" fill-opacity="0.4"/>
<path d="M129.742 87.5468H126.835V90.4533H129.742V87.5468Z" fill="#D9DCE2" fill-opacity="0.4"/>
<path d="M129.742 105.061H126.835V107.968H129.742V105.061Z" fill="#D9DCE2" fill-opacity="0.4"/>
<path d="M129.742 122.55H126.835V125.457H129.742V122.55Z" fill="#D9DCE2" fill-opacity="0.4"/>
<path d="M129.742 140.065H126.835V142.971H129.742V140.065Z" fill="#D9DCE2" fill-opacity="0.4"/>
<path d="M129.742 157.579H126.835V160.486H129.742V157.579Z" fill="#D9DCE2" fill-opacity="0.4"/>
<path d="M129.742 175.094H126.835V178H129.742V175.094Z" fill="#D9DCE2" fill-opacity="0.4"/>
<path d="M145.577 0H142.671V2.90653H145.577V0Z" fill="#D9DCE2" fill-opacity="0.4"/>
<path d="M145.577 17.5143H142.671V20.4209H145.577V17.5143Z" fill="#D9DCE2" fill-opacity="0.4"/>
<path d="M145.577 35.0037H142.671V37.9102H145.577V35.0037Z" fill="#D9DCE2" fill-opacity="0.4"/>
<path d="M145.577 52.518H142.671V55.4245H145.577V52.518Z" fill="#D9DCE2" fill-opacity="0.4"/>
<path d="M145.577 70.0324H142.671V72.9389H145.577V70.0324Z" fill="#D9DCE2" fill-opacity="0.4"/>
<path d="M145.577 87.5468H142.671V90.4533H145.577V87.5468Z" fill="#D9DCE2" fill-opacity="0.4"/>
<path d="M145.577 105.061H142.671V107.968H145.577V105.061Z" fill="#D9DCE2" fill-opacity="0.4"/>
<path d="M145.577 122.55H142.671V125.457H145.577V122.55Z" fill="#D9DCE2" fill-opacity="0.4"/>
<path d="M145.577 140.065H142.671V142.971H145.577V140.065Z" fill="#D9DCE2" fill-opacity="0.4"/>
<path d="M145.577 157.579H142.671V160.486H145.577V157.579Z" fill="#D9DCE2" fill-opacity="0.4"/>
<path d="M145.577 175.094H142.671V178H145.577V175.094Z" fill="#D9DCE2" fill-opacity="0.4"/>
<path d="M161.438 0H158.531V2.90653H161.438V0Z" fill="#D9DCE2" fill-opacity="0.4"/>
<path d="M161.438 17.5143H158.531V20.4209H161.438V17.5143Z" fill="#D9DCE2" fill-opacity="0.4"/>
<path d="M161.438 35.0037H158.531V37.9102H161.438V35.0037Z" fill="#D9DCE2" fill-opacity="0.4"/>
<path d="M161.438 52.518H158.531V55.4245H161.438V52.518Z" fill="#D9DCE2" fill-opacity="0.4"/>
<path d="M161.438 70.0324H158.531V72.9389H161.438V70.0324Z" fill="#D9DCE2" fill-opacity="0.4"/>
<path d="M161.438 87.5468H158.531V90.4533H161.438V87.5468Z" fill="#D9DCE2" fill-opacity="0.4"/>
<path d="M161.438 105.061H158.531V107.968H161.438V105.061Z" fill="#D9DCE2" fill-opacity="0.4"/>
<path d="M161.438 122.55H158.531V125.457H161.438V122.55Z" fill="#D9DCE2" fill-opacity="0.4"/>
<path d="M161.438 140.065H158.531V142.971H161.438V140.065Z" fill="#D9DCE2" fill-opacity="0.4"/>
<path d="M161.438 157.579H158.531V160.486H161.438V157.579Z" fill="#D9DCE2" fill-opacity="0.4"/>
<path d="M161.438 175.094H158.531V178H161.438V175.094Z" fill="#D9DCE2" fill-opacity="0.4"/>
</svg>
