<svg width="34" height="32" viewBox="0 0 34 32" fill="none" xmlns="http://www.w3.org/2000/svg">
<path d="M31.9996 24.1873H15.8445V27.325H32C32.8665 27.325 33.5689 26.6227 33.5689 25.7562C33.5685 24.8896 32.8661 24.1873 31.9996 24.1873Z" fill="#3A334F"/>
<path d="M32.0709 0H7.4151C3.31881 0 0 3.31839 0 7.41172V19.9116C0 23.7175 2.86803 26.8493 6.56039 27.2731V24.1016C4.6108 23.7044 3.13816 21.9781 3.13816 19.9116C3.13816 17.548 5.05103 15.6347 7.4151 15.6347H32.0709C32.899 15.6347 33.5701 14.9636 33.5701 14.1355V1.49923C33.5697 0.671106 32.8986 0 32.0709 0ZM30.4315 12.4965H7.41468C5.82344 12.4965 4.34742 13.0005 3.13816 13.8573V7.41214C3.13816 5.05567 5.05652 3.13858 7.41468 3.13858H30.4315V12.4965Z" fill="#3A334F"/>
<path d="M15.587 19.6546H6.81826C6.67602 19.6546 6.56079 19.7698 6.56079 19.912C6.56079 20.0543 6.67602 20.1691 6.81826 20.1691H8.23012V31.6408C8.23012 31.9075 8.42934 32.081 8.59902 31.9616L11.0884 30.2095C11.1602 30.1589 11.2446 30.1589 11.3164 30.2095L13.8058 31.9616C13.9755 32.081 14.1747 31.9075 14.1747 31.6408V20.1691H15.5865C15.7288 20.1691 15.844 20.0539 15.844 19.912C15.8444 19.7698 15.7292 19.6546 15.587 19.6546Z" fill="url(#paint0_linear)"/>
<defs>
<linearGradient id="paint0_linear" x1="11.2024" y1="19.6546" x2="11.2024" y2="32" gradientUnits="userSpaceOnUse">
<stop stop-color="#FFC1CD"/>
<stop offset="1" stop-color="#FF8499"/>
</linearGradient>
</defs>
</svg>
