<svg width="24" height="24" viewBox="0 0 24 24" fill="none" xmlns="http://www.w3.org/2000/svg">
<g id="Iconly/Curved/3 User">
<g id="3 User">
<path id="Stroke 1" fill-rule="evenodd" clip-rule="evenodd" d="M11.9725 20.3682C8.73349 20.3682 5.96649 19.8782 5.96649 17.9162C5.96649 15.9542 8.71549 14.2462 11.9725 14.2462C15.2115 14.2462 17.9785 15.9382 17.9785 17.8992C17.9785 19.8602 15.2295 20.3682 11.9725 20.3682Z" stroke="white" stroke-width="1.5" stroke-linecap="round" stroke-linejoin="round"/>
<path id="Stroke 3" fill-rule="evenodd" clip-rule="evenodd" d="M11.9725 11.4487C14.0985 11.4487 15.8225 9.72569 15.8225 7.59969C15.8225 5.47369 14.0985 3.74969 11.9725 3.74969C9.84648 3.74969 8.12248 5.47369 8.12248 7.59969C8.11648 9.71769 9.82648 11.4417 11.9455 11.4487H11.9725Z" stroke="white" stroke-width="1.5" stroke-linecap="round" stroke-linejoin="round"/>
<path id="Stroke 5" d="M18.3622 10.3916C19.5992 10.0606 20.5112 8.9326 20.5112 7.5896C20.5112 6.1886 19.5182 5.0186 18.1962 4.7486" stroke="white" stroke-width="1.5" stroke-linecap="round" stroke-linejoin="round"/>
<path id="Stroke 7" d="M18.9432 13.5444C20.6972 13.5444 22.1952 14.7334 22.1952 15.7954C22.1952 16.4204 21.6782 17.1014 20.8942 17.2854" stroke="white" stroke-width="1.5" stroke-linecap="round" stroke-linejoin="round"/>
<path id="Stroke 9" d="M5.58378 10.3916C4.34578 10.0606 3.43378 8.9326 3.43378 7.5896C3.43378 6.1886 4.42778 5.0186 5.74878 4.7486" stroke="white" stroke-width="1.5" stroke-linecap="round" stroke-linejoin="round"/>
<path id="Stroke 11" d="M5.00179 13.5444C3.24779 13.5444 1.74979 14.7334 1.74979 15.7954C1.74979 16.4204 2.26679 17.1014 3.05179 17.2854" stroke="white" stroke-width="1.5" stroke-linecap="round" stroke-linejoin="round"/>
</g>
</g>
</svg>
